<?xml version="1.0" encoding="utf-8"?>
<!-- Generator: Adobe Illustrator 24.0.0, SVG Export Plug-In . SVG Version: 6.00 Build 0)  -->
<svg version="1.1" id="Layer_1" xmlns="http://www.w3.org/2000/svg" xmlns:xlink="http://www.w3.org/1999/xlink" x="0px" y="0px"
	 viewBox="0 0 1366 768" style="enable-background:new 0 0 1366 768;" xml:space="preserve">
<style type="text/css">
	.st0{fill:#231F20;}
</style>
<g>
	<path class="st0" d="M47.13,400.85v-39.29h19.59v6.64H54.64v9.03h9.47v6.64h-9.47v16.98H47.13z"/>
	<path class="st0" d="M91.92,389.04v-5.99h13.39v5.99H91.92z"/>
	<path class="st0" d="M140.67,361.57v27.48c0,3.75,1.63,5.71,5.28,5.71c3.65,0,5.33-1.96,5.33-5.71v-27.48h7.51v27.53
		c0,8.65-5.11,12.3-12.84,12.3c-7.73,0-12.79-3.65-12.79-12.3v-27.53H140.67z"/>
	<path class="st0" d="M186.6,389.04v-5.99h13.39v5.99H186.6z"/>
	<path class="st0" d="M250.16,361.57v6.64h-8.76v32.65h-7.51V368.2h-8.76v-6.64H250.16z"/>
	<path class="st0" d="M275.24,389.04v-5.99h13.39v5.99H275.24z"/>
	<path class="st0" d="M324,361.57v27.48c0,3.75,1.63,5.71,5.28,5.71c3.65,0,5.33-1.96,5.33-5.71v-27.48h7.51v27.53
		c0,8.65-5.11,12.3-12.84,12.3c-7.73,0-12.79-3.65-12.79-12.3v-27.53H324z"/>
	<path class="st0" d="M369.93,389.04v-5.99h13.39v5.99H369.93z"/>
	<path class="st0" d="M428.37,400.85l-6.53-16h-3.59v16h-7.51v-39.29h10.88c9.03,0,13.33,4.35,13.33,11.75
		c0,4.9-1.74,8.43-5.93,10.01l7.4,17.52H428.37z M418.25,378.65h3.86c3.32,0,5.33-1.63,5.33-5.44c0-3.81-2.01-5.44-5.33-5.44h-3.86
		V378.65z"/>
	<path class="st0" d="M461.62,389.04v-5.99H475v5.99H461.62z"/>
	<path class="st0" d="M502.43,400.85v-39.29H523v6.64h-13.06v9.03h9.96v6.64h-9.96v10.34h13.6v6.64H502.43z"/>
	<path class="st0" d="M658.99,400.85l9.74-39.29h9.63l9.47,39.29h-7.18l-1.9-8.27h-10.39l-2.12,8.27H658.99z M669.71,385.94h7.45
		l-3.65-15.89h-0.11L669.71,385.94z"/>
	<path class="st0" d="M712.53,389.04v-5.99h13.39v5.99H712.53z"/>
	<path class="st0" d="M770.97,400.85l-6.53-16h-3.59v16h-7.51v-39.29h10.88c9.03,0,13.33,4.35,13.33,11.75
		c0,4.9-1.74,8.43-5.93,10.01l7.4,17.52H770.97z M760.85,378.65h3.86c3.32,0,5.33-1.63,5.33-5.44c0-3.81-2.01-5.44-5.33-5.44h-3.86
		V378.65z"/>
	<path class="st0" d="M804.22,389.04v-5.99h13.39v5.99H804.22z"/>
	<path class="st0" d="M851.89,389.21c0,4.35,1.9,5.55,4.9,5.55c2.99,0,4.9-1.2,4.9-5.55v-2.61h7.51v1.63
		c0,9.69-5.12,13.17-12.41,13.17c-7.29,0-12.41-3.48-12.41-13.17v-14.04c0-9.69,5.11-13.17,12.41-13.17
		c7.29,0,12.41,3.48,12.41,13.17v0.11h-7.51v-1.09c0-4.35-1.91-5.55-4.9-5.55c-2.99,0-4.9,1.2-4.9,5.55V389.21z"/>
	<path class="st0" d="M895.91,389.04v-5.99h13.39v5.99H895.91z"/>
	<path class="st0" d="M937.16,400.85v-39.29h7.51v15.67h10.61v-15.67h7.51v39.29h-7.51v-16.98h-10.61v16.98H937.16z"/>
	<path class="st0" d="M990.6,389.04v-5.99h13.39v5.99H990.6z"/>
	<path class="st0" d="M1031.84,400.85v-39.29h7.51v39.29H1031.84z"/>
	<path class="st0" d="M1067.16,389.04v-5.99h13.39v5.99H1067.16z"/>
	<path class="st0" d="M1105.42,361.57h7.4l6.91,28.08h0.11l6.86-28.08h7.35l-10.01,39.29h-8.54L1105.42,361.57z"/>
	<path class="st0" d="M1158.85,389.04v-5.99h13.39v5.99H1158.85z"/>
	<path class="st0" d="M1199.67,400.85v-39.29h20.57v6.64h-13.06v9.03h9.96v6.64h-9.96v10.34h13.6v6.64H1199.67z"/>
	<path class="st0" d="M1247.5,389.04v-5.99h13.39v5.99H1247.5z"/>
	<path class="st0" d="M1304.91,372.5c-1.25-3.7-2.88-5.28-5.5-5.28c-2.67,0-4.13,1.63-4.13,4.3c0,5.93,16.76,6.37,16.76,18.66
		c0,6.75-4.62,11.21-12.51,11.21c-6.09,0-10.83-3.32-12.84-11.05l7.4-1.58c0.87,4.73,3.59,6.42,5.82,6.42
		c2.61,0,4.62-1.74,4.62-4.68c0-7.4-16.76-7.51-16.76-18.5c0-6.75,4.03-10.99,11.81-10.99c6.69,0,10.77,3.97,12.08,9.52
		L1304.91,372.5z"/>
</g>
<g>
	<path d="M1343.27,366.62c0,3.93-3.08,7.01-7.1,7.01c-3.97,0-7.14-3.08-7.14-7.01c0-3.84,3.17-6.93,7.14-6.93
		C1340.19,359.69,1343.27,362.77,1343.27,366.62z M1330.81,366.62c0,3.08,2.28,5.53,5.41,5.53c3.04,0,5.28-2.45,5.28-5.49
		c0-3.08-2.24-5.58-5.32-5.58C1333.09,361.08,1330.81,363.58,1330.81,366.62z M1335.08,370.25h-1.6v-6.93
		c0.63-0.13,1.52-0.21,2.66-0.21c1.31,0,1.9,0.21,2.41,0.51c0.38,0.3,0.68,0.84,0.68,1.52c0,0.76-0.59,1.35-1.44,1.6v0.08
		c0.68,0.25,1.06,0.76,1.27,1.69c0.21,1.06,0.34,1.48,0.51,1.73h-1.73c-0.21-0.25-0.34-0.89-0.55-1.69c-0.13-0.76-0.55-1.1-1.44-1.1
		h-0.76V370.25z M1335.12,366.32h0.76c0.89,0,1.6-0.3,1.6-1.01c0-0.63-0.46-1.06-1.48-1.06c-0.42,0-0.72,0.04-0.89,0.08V366.32z"/>
</g>
</svg>
